PathFileType	4	(X/Y/Z)	c:/Users/goper/Files/vsCode/490R/osim_files/C17/C17_Fast_05.trc
DataRate	CameraRate	NumFrames	NumMarkers	Units                	OrigDataRate	OrigDataStartFrame	OrigNumFrames
250.00	250.00	5	36	mm	250.0	1621	2592
                Frame#	Time	LPSIS			LASIS			LTH1			LTH2			LTH3			LTH4			LLFE			LMFE			LSH1			LSH2			LSH3			LSH4			LLMAL			LMMAL			LCAL			LMTP5			LTOE			LMTP1			RPSIS			RASIS			RTH1			RTH2			RTH3			RTH4			RLFE			RMFE			RSH1			RSH2			RSH3			RSH4			RLMAL			RMMAL			RCAL			RMTP1			RTOE			RMTP5		
		X1	Y1	Z1	X2	Y2	Z2	X3	Y3	Z3	X4	Y4	Z4	X5	Y5	Z5	X6	Y6	Z6	X7	Y7	Z7	X8	Y8	Z8	X9	Y9	Z9	X10	Y10	Z10	X11	Y11	Z11	X12	Y12	Z12	X13	Y13	Z13	X14	Y14	Z14	X15	Y15	Z15	X16	Y16	Z16	X17	Y17	Z17	X18	Y18	Z18	X19	Y19	Z19	X20	Y20	Z20	X21	Y21	Z21	X22	Y22	Z22	X23	Y23	Z23	X24	Y24	Z24	X25	Y25	Z25	X26	Y26	Z26	X27	Y27	Z27	X28	Y28	Z28	X29	Y29	Z29	X30	Y30	Z30	X31	Y31	Z31	X32	Y32	Z32	X33	Y33	Z33	X34	Y34	Z34	X35	Y35	Z35	X36	Y36	Z36

1621	6.48000	-2900.45923	1039.07495	237.52527	0.00000	0.00000	0.00000	-2945.34546	686.11115	446.93381	-2943.13110	638.98120	442.27249	0.00000	0.00000	0.00000	-3001.32471	634.15442	445.55887	-2909.86084	477.63635	425.94485	-2920.83765	470.37692	303.63605	0.00000	0.00000	0.00000	-2668.95703	340.63364	422.58939	-2737.62964	321.12009	428.14087	-2700.73901	297.76141	427.10889	-2570.32397	227.26820	406.55048	-2586.94629	226.48624	322.17712	-2503.04443	280.73291	365.53952	-2556.14551	88.08071	404.32968	-2595.10840	78.56094	335.79059	-2575.08154	79.84921	287.52280	0.00000	0.00000	0.00000	-3090.14526	984.40320	420.88937	0.00000	0.00000	0.00000	-3215.31909	776.86053	95.76921	0.00000	0.00000	0.00000	-3218.27686	726.45905	108.39095	-3283.98730	515.45740	135.84282	-3279.11841	543.01886	259.54883	0.00000	0.00000	0.00000	-2602.12891	87.37141	331.97064	0.00000	0.00000	0.00000	-2583.32495	87.48730	283.85583	0.00000	0.00000	0.00000	-3299.55542	122.98539	279.51273	-3203.06934	65.19448	242.38763	0.00000	0.00000	0.00000	-3189.43115	764.30835	107.28973	0.00000	0.00000	0.00000
1622	6.48400	0.00000	0.00000	0.00000	-3271.77710	102.19691	192.73114	-2955.64795	684.15704	446.38162	-2957.85278	635.53711	446.10031	0.00000	0.00000	0.00000	-3012.11084	633.09674	445.07062	-2923.14575	476.28784	426.15311	-2935.04419	468.01318	303.63525	0.00000	0.00000	0.00000	-2680.74414	342.83197	422.92435	-2749.27979	322.48694	428.42166	-2712.17114	299.49088	427.69940	-2581.35205	230.88338	407.21762	-2598.12207	229.54684	324.16608	-2516.19312	287.16498	366.96085	-2562.08691	92.54153	405.06244	-2601.18481	79.59130	336.42468	-2580.23120	82.81246	288.35049	-2754.07031	331.97961	448.98541	0.00000	0.00000	0.00000	0.00000	0.00000	0.00000	-3222.46069	777.28351	94.80396	0.00000	0.00000	0.00000	-3224.76221	726.50763	107.58060	-3288.85156	514.87158	135.29225	-3285.69629	543.91632	258.89456	0.00000	0.00000	0.00000	-2608.13623	88.34823	332.67862	0.00000	0.00000	0.00000	-2588.30762	90.51267	284.76520	0.00000	0.00000	0.00000	-3301.49341	122.61858	280.15546	-3203.64233	65.15624	242.64641	-3442.85645	67.57133	274.51810	0.00000	0.00000	0.00000	-3400.16797	55.45908	165.92029
1623	6.48800	-2913.80640	1040.99951	237.25758	0.00000	0.00000	0.00000	0.00000	0.00000	0.00000	-2965.71387	634.60583	442.89731	0.00000	0.00000	0.00000	-3023.39722	632.26294	444.84961	-2935.35107	475.39651	426.32758	-2949.12378	465.81598	303.69827	0.00000	0.00000	0.00000	-2693.73413	344.93973	423.97244	-2761.01514	323.75528	428.74036	-2725.87378	300.75406	428.34576	-2592.52710	234.63159	407.97079	-2608.94824	232.63948	324.68365	-2530.37012	293.22131	368.35165	-2568.43896	96.72435	405.14032	-2607.67993	80.09327	337.24469	-2585.96411	85.83987	289.19788	0.00000	0.00000	0.00000	-3025.11230	303.82922	-139.51645	0.00000	0.00000	0.00000	-3229.17700	777.52887	93.91969	0.00000	0.00000	0.00000	-3230.96606	726.48334	106.84521	-3293.46729	514.26971	134.75781	-3291.71021	543.88806	258.06686	0.00000	0.00000	0.00000	-2614.99170	89.05967	333.38074	0.00000	0.00000	0.00000	-2594.08350	93.58284	285.47324	0.00000	0.00000	0.00000	-3299.47534	122.64922	279.46689	-3204.04663	65.20058	242.78368	-3445.95264	70.40348	274.15042	0.00000	0.00000	0.00000	-3400.51392	55.30817	165.93335
1624	6.49200	0.00000	0.00000	0.00000	-3037.24048	307.50958	-134.20300	-2976.56592	680.70410	445.57498	-2976.86523	632.94501	442.60403	0.00000	0.00000	0.00000	-3034.73584	631.48865	444.52246	-2948.62915	474.24197	426.39709	-2964.17041	464.32205	303.08466	0.00000	0.00000	0.00000	-2705.08203	347.02335	423.62433	-2773.14307	325.11896	428.88934	-2737.46021	302.05646	425.13876	-2604.02856	237.97482	408.51047	-2620.27905	235.42339	325.04083	-2544.83228	299.09668	369.76389	-2575.42920	101.00044	405.52963	-2615.14380	80.07589	337.89072	-2592.40210	88.68542	290.13019	-2777.51294	335.38568	450.24402	0.00000	0.00000	0.00000	0.00000	0.00000	0.00000	-3235.64575	777.76733	93.10465	0.00000	0.00000	0.00000	-3236.72974	726.31927	106.09803	-3297.73730	513.65961	134.27011	-3297.10693	543.26361	257.31891	0.00000	0.00000	0.00000	-2622.53857	89.11152	334.04721	0.00000	0.00000	0.00000	-2600.38916	96.37132	286.39944	0.00000	0.00000	0.00000	-3300.83374	122.30824	280.19754	-3204.30688	65.26077	242.90782	-3446.45776	69.84814	274.52667	0.00000	0.00000	0.00000	-3400.73096	55.20414	165.88574
1625	6.49600	-2927.39233	1042.97192	236.72023	0.00000	0.00000	0.00000	-2987.14136	678.98804	445.06772	-2989.28271	630.77069	442.50699	0.00000	0.00000	0.00000	0.00000	0.00000	0.00000	-2962.00708	473.34601	426.33282	-2977.32739	462.30786	303.51947	-2747.36914	380.79941	420.35425	-2717.44531	348.89362	423.86652	-2785.49463	326.24762	428.93588	-2749.77783	303.26175	425.07111	-2615.43091	241.32298	408.89362	-2628.68335	239.14531	325.52020	-2559.98047	304.42535	371.16339	-2583.06934	105.29275	405.94843	-2621.98560	78.84443	338.41653	-2599.17920	91.27490	290.90784	0.00000	0.00000	0.00000	-2954.92700	220.02687	66.37790	0.00000	0.00000	0.00000	-3241.67871	777.93286	92.28931	0.00000	0.00000	0.00000	-3242.21484	726.18726	105.41779	-3301.79932	513.14270	133.75655	-3302.06396	542.62103	256.84433	0.00000	0.00000	0.00000	-2630.12451	88.34225	334.70413	0.00000	0.00000	0.00000	-2607.28027	98.92847	287.18243	0.00000	0.00000	0.00000	-3302.59473	122.05339	280.78094	-3204.57227	65.27764	243.04065	-3443.19409	64.51664	275.91818	0.00000	0.00000	0.00000	-3400.91675	55.15805	165.86256
